<svg width="81" height="27" viewBox="0 0 81 27" fill="none" xmlns="http://www.w3.org/2000/svg">
<path d="M34.4696 13.8463C34.4696 17.594 31.4946 20.3556 27.8437 20.3556C24.1927 20.3556 21.2178 17.594 21.2178 13.8463C21.2178 10.0721 24.1927 7.33691 27.8437 7.33691C31.4946 7.33691 34.4696 10.0721 34.4696 13.8463ZM31.5691 13.8463C31.5691 11.5043 29.8449 9.90191 27.8437 9.90191C25.8425 9.90191 24.1183 11.5043 24.1183 13.8463C24.1183 16.1647 25.8425 17.7906 27.8437 17.7906C29.8449 17.7906 31.5691 16.1618 31.5691 13.8463Z" fill="white"/>
<path d="M48.7637 13.8463C48.7637 17.594 45.7888 20.3556 42.1378 20.3556C38.4869 20.3556 35.5119 17.594 35.5119 13.8463C35.5119 10.0751 38.4869 7.33691 42.1378 7.33691C45.7888 7.33691 48.7637 10.0721 48.7637 13.8463ZM45.8632 13.8463C45.8632 11.5043 44.139 9.90191 42.1378 9.90191C40.1366 9.90191 38.4124 11.5043 38.4124 13.8463C38.4124 16.1647 40.1366 17.7906 42.1378 17.7906C44.139 17.7906 45.8632 16.1618 45.8632 13.8463Z" fill="white"/>
<path d="M62.4623 7.73017V19.4165C62.4623 24.2237 59.5856 26.187 56.1848 26.187C52.9835 26.187 51.0568 24.0769 50.3301 22.3513L52.8554 21.3153C53.3051 22.3747 54.4069 23.625 56.1818 23.625C58.3587 23.625 59.7077 22.3014 59.7077 19.8097V18.8735H59.6064C58.9572 19.663 57.7065 20.3527 56.1282 20.3527C52.8257 20.3527 49.8001 17.5177 49.8001 13.8697C49.8001 10.1954 52.8257 7.33691 56.1282 7.33691C57.7035 7.33691 58.9543 8.02659 59.6064 8.79257H59.7077V7.73311H62.4623V7.73017ZM59.9132 13.8697C59.9132 11.5777 58.3617 9.90191 56.3873 9.90191C54.3861 9.90191 52.7095 11.5777 52.7095 13.8697C52.7095 16.1383 54.3861 17.7906 56.3873 17.7906C58.3617 17.7906 59.9132 16.1383 59.9132 13.8697Z" fill="white"/>
<path d="M67.0037 0.880371V19.9565H64.1746V0.880371H67.0037Z" fill="white"/>
<path d="M78.0281 15.9887L80.2794 17.4678C79.5528 18.5272 77.8018 20.3527 74.7762 20.3527C71.024 20.3527 68.2217 17.4942 68.2217 13.8433C68.2217 9.97235 71.0478 7.33398 74.4516 7.33398C77.8792 7.33398 79.5558 10.0222 80.1037 11.475L80.4045 12.2145L71.5749 15.8184C72.2509 17.1244 73.3021 17.7906 74.7762 17.7906C76.2533 17.7906 77.2777 17.0745 78.0281 15.9887ZM71.0984 13.6467L77.0007 11.2314C76.6761 10.4184 75.6994 9.85203 74.5499 9.85203C73.0758 9.85203 71.024 11.1345 71.0984 13.6467Z" fill="white"/>
<path d="M10.5092 12.1529V9.39131H19.9523C20.0446 9.87261 20.0923 10.442 20.0923 11.0583C20.0923 13.1302 19.5175 15.6923 17.6652 17.5177C15.8636 19.3666 13.5616 20.3527 10.5122 20.3527C4.86009 20.3527 0.107291 15.8155 0.107291 10.2453C0.107291 4.67511 4.86009 0.137939 10.5122 0.137939C13.6391 0.137939 15.8666 1.34707 17.5402 2.92305L15.5628 4.87174C14.3627 3.7624 12.7367 2.89957 10.5092 2.89957C6.38181 2.89957 3.15373 6.17772 3.15373 10.2453C3.15373 14.3129 6.38181 17.5911 10.5092 17.5911C13.1864 17.5911 14.7111 16.5316 15.6879 15.569C16.48 14.7884 17.0012 13.6732 17.2066 12.15L10.5092 12.1529Z" fill="white"/>
</svg>
