<svg width="104" height="22" viewBox="0 0 104 22" fill="none" xmlns="http://www.w3.org/2000/svg">
<path d="M36.7099 12.6714L36.0901 14.4109H36.0384C35.9351 14.0187 35.7457 13.4218 35.4358 12.7055L32.1126 4.43418H28.8583V17.6171H31.0106V9.48224C31.0106 8.97061 31.0106 8.39077 30.9934 7.67449C30.9762 7.31635 30.9417 7.04348 30.9245 6.83883H30.9762C31.0795 7.35046 31.2 7.72565 31.2861 7.96441L35.2808 17.583H36.796L40.7563 7.87914C40.8424 7.65744 40.9285 7.21402 41.0146 6.83883H41.0662C41.0146 7.81092 40.9801 8.68069 40.9629 9.20937V17.566H43.253V4.40007H40.1192L36.7099 12.6714ZM45.4225 8.1179H47.6609V17.566H45.4225V8.1179ZM46.5589 4.1272C46.1801 4.1272 45.8702 4.26364 45.6119 4.5024C45.3536 4.74116 45.2159 5.04813 45.2159 5.42333C45.2159 5.78147 45.3536 6.08844 45.6119 6.3272C45.8702 6.56596 46.1801 6.68534 46.5589 6.68534C46.9377 6.68534 47.2649 6.54891 47.506 6.3272C47.7642 6.08844 47.902 5.78147 47.902 5.42333C47.902 5.06519 47.7642 4.75821 47.506 4.5024C47.2821 4.26364 46.955 4.1272 46.5589 4.1272ZM55.5987 8.03263C55.1854 7.94736 54.755 7.89619 54.3417 7.89619C53.3258 7.89619 52.396 8.1179 51.6212 8.56131C50.8463 9.00472 50.2265 9.61868 49.8305 10.3861C49.4172 11.1706 49.2106 12.0745 49.2106 13.1148C49.2106 14.0187 49.4172 14.8202 49.8132 15.5536C50.2093 16.2698 50.7603 16.8497 51.5007 17.2419C52.2066 17.6342 53.0331 17.8388 53.9629 17.8388C55.0305 17.8388 55.943 17.6171 56.6662 17.2078L56.6834 17.1908V15.1443L56.5973 15.2125C56.2702 15.4512 55.8914 15.6559 55.5126 15.7753C55.1165 15.9117 54.755 15.9799 54.445 15.9799C53.5497 15.9799 52.8437 15.7241 52.3444 15.1613C51.8278 14.6156 51.5695 13.8652 51.5695 12.9272C51.5695 11.9551 51.8278 11.1877 52.3616 10.6249C52.8954 10.0621 53.6013 9.77216 54.4622 9.77216C55.1854 9.77216 55.9258 10.0109 56.5973 10.4884L56.6834 10.5567V8.39077L56.6662 8.37371C56.3735 8.25433 56.0464 8.1179 55.5987 8.03263ZM62.9854 7.96441C62.4344 7.96441 61.9179 8.13495 61.4702 8.49309C61.0914 8.80007 60.8331 9.24348 60.6093 9.77216H60.592V8.1179H58.3536V17.566H60.592V12.7396C60.592 11.921 60.7642 11.2388 61.143 10.7443C61.5218 10.2326 62.004 9.97682 62.5894 9.97682C62.796 9.97682 63.0026 10.028 63.2609 10.0621C63.502 10.1303 63.6742 10.1985 63.7947 10.2838L63.8808 10.352V8.13495L63.8291 8.1179C63.6742 8.01557 63.3642 7.96441 62.9854 7.96441ZM69.0808 7.91325C67.5139 7.91325 66.2569 8.37372 65.3788 9.27759C64.4834 10.1815 64.053 11.4264 64.053 12.9954C64.053 14.4621 64.5007 15.6559 65.3616 16.5257C66.2225 17.3784 67.3934 17.8218 68.8569 17.8218C70.3894 17.8218 71.6119 17.3613 72.4901 16.4404C73.3854 15.5195 73.8159 14.2915 73.8159 12.7737C73.8159 11.2729 73.4026 10.0791 72.5589 9.20937C71.7497 8.33961 70.5616 7.91325 69.0808 7.91325ZM70.8715 15.1784C70.4583 15.707 69.804 15.9629 68.9947 15.9629C68.1854 15.9629 67.5311 15.707 67.0662 15.1443C66.6013 14.6156 66.3775 13.8481 66.3775 12.876C66.3775 11.8698 66.6185 11.1024 67.0662 10.5567C67.5311 10.0109 68.1682 9.73806 68.9775 9.73806C69.7695 9.73806 70.3894 9.99387 70.8371 10.5226C71.2848 11.0512 71.5258 11.8187 71.5258 12.8249C71.4914 13.8481 71.302 14.6497 70.8715 15.1784ZM78.8093 12.0404C78.1033 11.7505 77.6556 11.5288 77.449 11.3412C77.2768 11.1706 77.1907 10.9319 77.1907 10.6249C77.1907 10.3691 77.294 10.1132 77.5523 9.94271C77.8106 9.77216 78.1033 9.68689 78.5338 9.68689C78.9126 9.68689 79.3086 9.75511 79.6874 9.85744C80.0662 9.95976 80.4106 10.1132 80.6861 10.3179L80.7722 10.3861V8.3055L80.7205 8.28844C80.4622 8.18612 80.1179 8.08379 79.7046 7.99852C79.2914 7.9303 78.9126 7.89619 78.6026 7.89619C77.5351 7.89619 76.6569 8.15201 75.9682 8.7148C75.2795 9.24348 74.9523 9.95976 74.9523 10.7954C74.9523 11.2388 75.0212 11.6311 75.1762 11.9551C75.3311 12.2791 75.555 12.5861 75.8649 12.8419C76.1748 13.0807 76.6225 13.3536 77.2424 13.6094C77.7589 13.8311 78.155 14.0016 78.396 14.1381C78.6371 14.2745 78.792 14.428 78.9126 14.5474C78.9987 14.6838 79.0503 14.8543 79.0503 15.076C79.0503 15.707 78.5682 16.014 77.5867 16.014C77.2079 16.014 76.8119 15.9458 76.347 15.7923C75.8821 15.6388 75.4516 15.4171 75.0901 15.1613L75.004 15.0931V17.259L75.0556 17.276C75.3828 17.4295 75.7788 17.5319 76.2609 17.6512C76.743 17.7365 77.1735 17.8047 77.5523 17.8047C78.7059 17.8047 79.653 17.5489 80.3245 16.9861C81.0132 16.4404 81.3748 15.7412 81.3748 14.8373C81.3748 14.2063 81.2026 13.6435 80.8238 13.2171C80.3245 12.8078 79.7046 12.3815 78.8093 12.0404ZM87.2808 7.91325C85.7139 7.91325 84.4569 8.37372 83.5788 9.27759C82.7006 10.1815 82.253 11.4264 82.253 12.9954C82.253 14.4621 82.7006 15.6559 83.5616 16.5257C84.4225 17.3784 85.5934 17.8218 87.0569 17.8218C88.5894 17.8218 89.8119 17.3613 90.6901 16.4404C91.5854 15.5195 92.0159 14.2915 92.0159 12.7737C92.0159 11.2729 91.6026 10.0791 90.7589 9.20937C89.9497 8.33961 88.7616 7.91325 87.2808 7.91325ZM89.0543 15.1784C88.6411 15.707 87.9867 15.9629 87.1775 15.9629C86.351 15.9629 85.7139 15.707 85.249 15.1443C84.7841 14.6156 84.5603 13.8481 84.5603 12.876C84.5603 11.8698 84.8013 11.1024 85.249 10.5567C85.7139 10.0109 86.351 9.73806 87.1603 9.73806C87.9351 9.73806 88.5722 9.99387 89.0199 10.5226C89.4675 11.0512 89.7086 11.8187 89.7086 12.8249C89.7086 13.8481 89.4848 14.6497 89.0543 15.1784ZM103.983 9.94271V8.1179H101.727V5.321L101.658 5.33806L99.5232 5.96906L99.4715 5.98612V8.1179H96.0967V6.9241C96.0967 6.37837 96.2344 5.95201 96.4755 5.67914C96.7165 5.40627 97.0781 5.26984 97.5258 5.26984C97.8358 5.26984 98.1629 5.33806 98.5245 5.49154L98.6106 5.54271V3.61558L98.5589 3.59852C98.249 3.4962 97.8357 3.42798 97.302 3.42798C96.6304 3.42798 96.045 3.58147 95.5112 3.83728C94.9775 4.1272 94.5814 4.51945 94.2887 5.04813C93.996 5.55976 93.841 6.13961 93.841 6.80472V8.1179H92.2742V9.92565H93.841V17.566H96.0967V9.94271H99.4715V14.8032C99.4715 16.7985 100.419 17.8047 102.313 17.8047C102.623 17.8047 102.95 17.7536 103.26 17.7024C103.587 17.6342 103.828 17.5489 103.966 17.4807L103.983 17.4636V15.6388L103.897 15.707C103.759 15.7923 103.638 15.8605 103.432 15.9117C103.26 15.9629 103.105 15.9799 102.984 15.9799C102.536 15.9799 102.226 15.8776 102.003 15.6218C101.796 15.383 101.693 14.9908 101.693 14.4109V9.94271H103.983Z" fill="white"/>
<path d="M0 0H10.555V10.4543H0V0Z" fill="white"/>
<path d="M11.6569 0H22.2118V10.4543H11.6569V0Z" fill="white"/>
<path d="M0 11.5457H10.555V21.9999H0V11.5457Z" fill="white"/>
<path d="M11.6569 11.5457H22.2118V21.9999H11.6569V11.5457Z" fill="white"/>
</svg>
