<svg width="300" height="120" viewBox="0 0 300 120" fill="none" xmlns="http://www.w3.org/2000/svg">
<path d="M296.122 76.6975V75.8664H296.645C296.922 75.8664 297.322 75.8972 297.322 76.2358C297.322 76.5743 297.107 76.6975 296.768 76.6975H296.122ZM296.122 77.2823H296.491L297.322 78.7289H298.215L297.291 77.2207C297.753 77.2515 298.122 76.9129 298.153 76.4512V76.3281C298.153 75.5279 297.599 75.2816 296.676 75.2816H295.352V78.7289H296.122V77.2823ZM300 77.0052C300 74.9739 298.43 73.8043 296.676 73.8043C294.921 73.8043 293.352 74.9739 293.352 77.0052C293.352 79.0366 294.921 80.2062 296.676 80.2062C298.43 80.2062 300 79.0366 300 77.0052ZM299.015 77.0052C299.076 78.298 298.061 79.406 296.768 79.4675H296.676C295.321 79.5291 294.183 78.4518 294.121 77.0976C294.059 75.7433 295.137 74.6045 296.491 74.543C297.845 74.4814 298.984 75.5586 299.046 76.9129C299.015 76.9437 299.015 76.9745 299.015 77.0052Z" fill="white"/>
<path d="M177.962 42.8101V79.129H188.212V42.8101H177.962ZM97.3223 42.7485V79.0982H107.664V50.8741L115.728 50.9049C118.375 50.9049 120.222 51.5512 121.484 52.9055C123.115 54.6291 123.761 57.43 123.761 62.5085V79.0982H133.795V59.0305C133.795 44.6876 124.654 42.7485 115.728 42.7485H97.3223ZM194.491 42.8101V79.129H211.111C219.975 79.129 222.869 77.6516 225.977 74.3583C228.193 72.0499 229.609 66.9406 229.609 61.3696C229.609 56.2604 228.409 51.7051 226.285 48.8735C222.53 43.795 217.051 42.8101 208.864 42.8101H194.491ZM204.648 50.6894H209.049C215.451 50.6894 219.575 53.5519 219.575 61.0003C219.575 68.4487 215.451 71.3419 209.049 71.3419H204.648V50.6894ZM163.189 42.8101L154.632 71.5882L146.445 42.8101H135.365L147.061 79.129H161.834L173.653 42.8101H163.189ZM234.411 79.129H244.66V42.8101H234.411V79.129ZM263.158 42.8101L248.846 79.0982H258.941L261.219 72.6654H278.147L280.302 79.0674H291.29L276.854 42.8101H263.158ZM269.806 49.4275L276.023 66.4174H263.404L269.806 49.4275Z" fill="white"/>
<path d="M31.1788 48.8427V43.8566C31.6713 43.8258 32.1637 43.795 32.6562 43.795C46.3219 43.3641 55.2785 55.5525 55.2785 55.5525C55.2785 55.5525 45.614 68.972 35.2416 68.972C33.8566 68.972 32.5023 68.7565 31.2096 68.3256V53.1825C36.5343 53.8289 37.6116 56.1681 40.7818 61.4928L47.8917 55.5217C47.8917 55.5217 42.6901 48.7196 33.9489 48.7196C33.0255 48.6888 32.1022 48.7504 31.1788 48.8427ZM31.1788 32.3453V39.7938L32.6562 39.7014C51.6467 39.0551 64.0505 55.2755 64.0505 55.2755C64.0505 55.2755 49.8307 72.5731 35.0262 72.5731C33.7335 72.5731 32.4715 72.45 31.2096 72.2345V76.8513C32.2561 76.9745 33.3333 77.0668 34.3798 77.0668C48.1687 77.0668 58.141 70.0185 67.8055 61.7082C69.406 63.0009 75.9618 66.1096 77.3161 67.4638C68.144 75.1585 46.7528 81.345 34.626 81.345C33.4564 81.345 32.3484 81.2835 31.2404 81.1604V87.6547H83.6257V32.3453H31.1788ZM31.1788 68.3256V72.2653C18.4364 69.9877 14.8969 56.7221 14.8969 56.7221C14.8969 56.7221 21.0219 49.9508 31.1788 48.8427V53.1517H31.148C25.8233 52.5054 21.6374 57.4915 21.6374 57.4915C21.6374 57.4915 24.0074 65.8941 31.1788 68.3256ZM8.55648 56.1681C8.55648 56.1681 16.0973 45.0262 31.2096 43.8566V39.7938C14.466 41.148 0 55.3062 0 55.3062C0 55.3062 8.18714 79.0058 31.1788 81.1604V76.8513C14.3121 74.7584 8.55648 56.1681 8.55648 56.1681Z" fill="white"/>
</svg>
