<svg width="388" height="100" viewBox="0 0 388 100" fill="none" xmlns="http://www.w3.org/2000/svg">
<g clip-path="url(#clip0_2380_521)">
<path d="M192.008 75.4311C212.339 75.4311 228.821 58.949 228.821 38.6174C228.821 18.2858 212.339 1.80371 192.008 1.80371C171.676 1.80371 155.194 18.2858 155.194 38.6174C155.194 58.949 171.676 75.4311 192.008 75.4311Z" stroke="white" stroke-opacity="0.957647" stroke-width="3.60729" stroke-linecap="round" stroke-linejoin="bevel"/>
<path d="M270.748 75.4311C291.079 75.4311 307.561 58.949 307.561 38.6174C307.561 18.2858 291.079 1.80371 270.748 1.80371C250.416 1.80371 233.934 18.2858 233.934 38.6174C233.934 58.949 250.416 75.4311 270.748 75.4311Z" stroke="white" stroke-opacity="0.957647" stroke-width="3.60729" stroke-linecap="round" stroke-linejoin="bevel"/>
<path fill-rule="evenodd" clip-rule="evenodd" d="M117.357 97.4414H150.762V30.6314L117.357 1.9985C117.357 1.9985 79.1802 -2.77364 79.1802 35.4035C79.1802 73.5807 117.357 73.5807 117.357 73.5807V97.4414Z" stroke="white" stroke-opacity="0.957647" stroke-width="3.60729"/>
<path fill-rule="evenodd" clip-rule="evenodd" d="M347.102 97.4414H313.697V30.6314L347.102 1.9985C347.102 1.9985 385.279 -2.77364 385.279 35.4035C385.279 73.5807 347.102 73.5807 347.102 73.5807V97.4414Z" stroke="white" stroke-opacity="0.957647" stroke-width="3.60729"/>
<path d="M38.6173 1.80371C28.8537 1.80375 19.4901 5.68232 12.5862 12.5862C5.68231 19.4901 1.80375 28.8537 1.80371 38.6173C1.81803 47.8076 5.26939 56.6603 11.4794 63.4352H28.4573L20.0017 70.332C25.643 73.657 32.069 75.4171 38.6173 75.4308C48.3808 75.4308 57.7445 71.5522 64.6483 64.6483C71.5522 57.7445 75.4308 48.3808 75.4308 38.6173C75.4155 29.8743 72.2891 21.4222 66.6112 14.7738H46.7322L56.7472 6.60475C51.2197 3.46603 44.9737 1.81201 38.6173 1.80371Z" stroke="white" stroke-opacity="0.957647" stroke-width="3.60729" stroke-linecap="round" stroke-linejoin="bevel"/>
</g>
<defs>
<clipPath id="clip0_2380_521">
<rect width="387.083" height="99.245" fill="white"/>
</clipPath>
</defs>
</svg>
